<svg width="800" height="500" viewBox="0 0 800 500" xmlns="http://www.w3.org/2000/svg">
  <defs>
    <linearGradient id="bg1" x1="0%" y1="0%" x2="100%" y2="100%">
      <stop offset="0%" style="stop-color:#1a0d2e"/>
      <stop offset="100%" style="stop-color:#0d1a2e"/>
    </linearGradient>
  </defs>
  <rect width="800" height="500" fill="url(#bg1)"/>
  <rect x="0" y="0" width="800" height="60" fill="#0a0514" opacity="0.95"/>
  <text x="30" y="38" font-family="system-ui,sans-serif" font-size="18" fill="#a476ff" font-weight="600">Dashboard · Analítica de Tráfico Web</text>
  <rect x="30" y="80" width="155" height="68" fill="#1e1133" rx="8" stroke="#2d1f4a" stroke-width="1"/>
  <text x="48" y="106" font-family="system-ui,sans-serif" font-size="11" fill="#a0a0b0">Sesiones totales</text>
  <text x="48" y="132" font-family="system-ui,sans-serif" font-size="22" fill="#dfdfdf" font-weight="bold">48,320</text>
  <rect x="200" y="80" width="155" height="68" fill="#1e1133" rx="8" stroke="#2d1f4a" stroke-width="1"/>
  <text x="218" y="106" font-family="system-ui,sans-serif" font-size="11" fill="#a0a0b0">Tasa de rebote</text>
  <text x="218" y="132" font-family="system-ui,sans-serif" font-size="22" fill="#dfdfdf" font-weight="bold">34.2%</text>
  <rect x="370" y="80" width="155" height="68" fill="#1e1133" rx="8" stroke="#2d1f4a" stroke-width="1"/>
  <text x="388" y="106" font-family="system-ui,sans-serif" font-size="11" fill="#a0a0b0">Conversiones</text>
  <text x="388" y="132" font-family="system-ui,sans-serif" font-size="22" fill="#a476ff" font-weight="bold">2,841</text>
  <rect x="540" y="80" width="230" height="68" fill="#1e1133" rx="8" stroke="#2d1f4a" stroke-width="1"/>
  <text x="558" y="106" font-family="system-ui,sans-serif" font-size="11" fill="#a0a0b0">Fuentes de tráfico</text>
  <rect x="558" y="116" width="60" height="8" fill="#a476ff" opacity="0.8" rx="2"/>
  <rect x="558" y="130" width="40" height="8" fill="#7ef0a8" opacity="0.7" rx="2"/>
  <text x="624" y="124" font-family="system-ui,sans-serif" font-size="10" fill="#a0a0b0">Orgánico 62%</text>
  <text x="604" y="138" font-family="system-ui,sans-serif" font-size="10" fill="#a0a0b0">Social 38%</text>
  <line x1="30" y1="420" x2="770" y2="420" stroke="#2a1f45" stroke-width="1"/>
  <rect x="65" y="290" width="55" height="130" fill="#a476ff" opacity="0.75" rx="4"/>
  <rect x="160" y="210" width="55" height="210" fill="#a476ff" opacity="0.55" rx="4"/>
  <rect x="255" y="160" width="55" height="260" fill="#a476ff" opacity="0.75" rx="4"/>
  <rect x="350" y="230" width="55" height="190" fill="#a476ff" opacity="0.55" rx="4"/>
  <rect x="445" y="175" width="55" height="245" fill="#a476ff" opacity="0.75" rx="4"/>
  <rect x="540" y="200" width="55" height="220" fill="#a476ff" opacity="0.55" rx="4"/>
  <rect x="635" y="110" width="55" height="310" fill="#a476ff" opacity="0.85" rx="4"/>
  <polyline points="92,280 187,200 282,150 377,220 472,165 567,190 662,100" fill="none" stroke="#7ef0a8" stroke-width="2.5" opacity="0.7"/>
  <text x="65" y="445" font-family="system-ui,sans-serif" font-size="11" fill="#60608a">Ene</text>
  <text x="160" y="445" font-family="system-ui,sans-serif" font-size="11" fill="#60608a">Feb</text>
  <text x="255" y="445" font-family="system-ui,sans-serif" font-size="11" fill="#60608a">Mar</text>
  <text x="350" y="445" font-family="system-ui,sans-serif" font-size="11" fill="#60608a">Abr</text>
  <text x="445" y="445" font-family="system-ui,sans-serif" font-size="11" fill="#60608a">May</text>
  <text x="540" y="445" font-family="system-ui,sans-serif" font-size="11" fill="#60608a">Jun</text>
  <text x="635" y="445" font-family="system-ui,sans-serif" font-size="11" fill="#60608a">Jul</text>
  <text x="750" y="460" font-family="system-ui,sans-serif" font-size="10" fill="#3a3a5a">demo</text>
</svg>
