<?xml version="1.0" standalone="no"?>
<!DOCTYPE svg PUBLIC "-//W3C//DTD SVG 20010904//EN"
 "http://www.w3.org/TR/2001/REC-SVG-20010904/DTD/svg10.dtd">
<svg version="1.0" xmlns="http://www.w3.org/2000/svg"
 width="1080.000000pt" height="1350.000000pt" viewBox="0 0 1080.000000 1350.000000"
 preserveAspectRatio="xMidYMid meet">

<g transform="translate(0.000000,1350.000000) scale(0.100000,-0.100000)"
fill="#000000" stroke="none">
<path d="M0 6750 l0 -6750 5400 0 5400 0 0 6750 0 6750 -5400 0 -5400 0 0
-6750z m1853 1918 l362 -657 3 659 2 660 145 0 145 0 0 -865 0 -865 -177 2
-177 3 -360 657 -361 657 -3 -660 -2 -659 -145 0 -145 0 0 865 0 865 176 -2
176 -3 361 -657z m3947 347 l0 -315 60 60 c106 106 223 144 379 122 140 -20
228 -73 289 -175 65 -107 65 -113 69 -634 l4 -473 -135 0 -135 0 -3 443 c-3
393 -6 447 -21 487 -37 94 -97 130 -216 130 -172 0 -256 -93 -281 -307 -5 -49
-10 -238 -10 -420 l0 -333 -135 0 -135 0 0 858 c0 472 3 862 7 865 3 4 64 7
135 7 l128 0 0 -315z m-2329 -139 c150 -27 269 -105 328 -215 57 -107 61 -149
61 -628 l0 -433 -130 0 -130 0 0 87 0 88 -46 -53 c-75 -86 -152 -125 -279
-143 -90 -12 -206 1 -290 32 -71 26 -147 94 -181 160 -69 137 -41 326 63 420
91 82 175 112 473 168 118 23 225 43 238 46 20 5 22 10 16 48 -25 175 -183
262 -358 196 -62 -23 -131 -91 -144 -143 l-8 -31 -137 -3 -138 -3 7 28 c68
282 335 436 655 379z m1434 -11 c157 -41 283 -140 348 -275 20 -41 39 -85 42
-97 l6 -23 -145 0 -146 0 -24 49 c-89 174 -364 199 -506 45 -78 -84 -110 -179
-110 -324 0 -200 65 -330 203 -406 47 -26 61 -29 142 -29 71 1 101 6 141 24
63 27 116 81 144 144 l21 47 145 0 144 0 -6 -27 c-3 -16 -23 -64 -44 -108 -94
-195 -289 -307 -534 -307 -265 -1 -454 113 -565 340 -48 96 -65 182 -65 322 0
195 48 328 161 451 94 102 208 163 351 189 64 12 224 4 297 -15z m2750 -1
c351 -94 537 -480 416 -864 -44 -139 -154 -277 -274 -344 -187 -105 -458 -106
-651 -3 -91 48 -187 150 -235 249 -61 124 -75 191 -75 343 1 113 4 141 27 210
73 220 238 371 462 419 85 19 241 14 330 -10z m-5606 -1510 c149 -33 264 -97
355 -195 68 -73 101 -128 132 -220 39 -117 49 -109 -131 -109 -139 0 -156 2
-162 18 -3 9 -15 40 -28 67 -107 243 -534 276 -736 57 -59 -63 -108 -154 -134
-248 -22 -78 -31 -297 -16 -394 40 -254 183 -428 389 -471 82 -17 233 -7 304
20 104 40 187 135 217 249 l12 42 154 0 155 0 0 -26 c0 -38 -47 -171 -82 -234
-50 -88 -159 -188 -258 -237 -127 -63 -197 -77 -380 -77 -127 0 -169 4 -235
22 -288 78 -478 283 -557 599 -19 74 -22 117 -23 273 0 163 3 195 23 269 98
359 323 563 674 611 79 11 244 3 327 -16z m2471 -729 c3 -396 9 -728 14 -738
13 -28 40 -37 110 -37 l66 0 0 -116 0 -116 -137 4 c-127 3 -142 5 -195 31 -32
16 -67 42 -79 58 -49 69 -49 71 -49 881 l0 759 133 -3 132 -3 5 -720z m4735
555 l-170 -170 -103 0 c-57 0 -102 4 -100 9 2 5 59 81 128 170 l125 160 145 1
145 0 -170 -170z m-5703 -294 c111 -30 188 -75 273 -161 129 -128 185 -271
185 -467 0 -325 -174 -566 -465 -643 -81 -22 -250 -22 -339 -1 -111 26 -192
71 -277 156 -91 89 -150 199 -175 324 -22 109 -15 295 14 386 72 220 255 378
490 420 65 12 225 4 294 -14z m2130 0 c111 -30 188 -75 273 -161 129 -128 185
-271 185 -467 0 -325 -174 -566 -465 -643 -81 -22 -250 -22 -339 -1 -111 26
-192 71 -277 156 -91 89 -150 199 -175 324 -22 109 -15 295 14 386 72 220 255
378 490 420 65 12 225 4 294 -14z m1496 -11 c67 -31 123 -82 147 -136 l18 -38
27 37 c39 54 106 111 155 133 72 32 185 45 275 31 183 -26 295 -135 329 -317
7 -37 11 -231 11 -512 l0 -453 -135 0 -135 0 0 433 c0 469 -2 494 -54 562 -36
47 -98 68 -184 63 -86 -4 -137 -36 -176 -108 -50 -92 -56 -150 -56 -567 l0
-383 -134 0 -135 0 -3 443 c-4 471 -4 477 -55 545 -36 48 -91 72 -165 72 -84
0 -141 -29 -185 -93 -63 -93 -72 -175 -73 -619 l0 -348 -135 0 -135 0 2 633 3
632 133 3 132 3 0 -87 0 -87 53 55 c99 103 194 141 335 133 62 -3 98 -11 140
-30z m1969 16 c122 -25 219 -77 303 -161 109 -109 163 -241 176 -431 l7 -99
-493 0 -493 0 7 -42 c18 -113 114 -246 214 -295 50 -24 68 -28 142 -27 53 1
102 7 129 18 60 22 128 80 164 138 l30 48 133 0 c104 0 134 -3 134 -13 0 -7
-18 -51 -40 -97 -32 -65 -58 -100 -118 -160 -123 -123 -252 -173 -442 -172
-118 1 -194 17 -287 63 -157 76 -269 216 -319 399 -24 89 -25 281 -1 370 94
351 394 535 754 461z m-2689 -1643 c4 -20 -101 -83 -124 -74 -23 9 -15 21 41
61 52 37 78 41 83 13z m-3648 -22 c0 -33 -13 -47 -37 -39 -14 5 -18 55 -6 66
3 4 15 7 25 7 14 0 18 -8 18 -34z m1808 0 c4 -32 -10 -46 -39 -39 -13 4 -19
14 -19 32 0 34 8 43 35 39 14 -2 21 -12 23 -32z m2410 -2 c2 -23 -2 -33 -15
-36 -30 -8 -43 2 -43 31 0 34 8 43 35 39 14 -2 21 -12 23 -34z m-5134 20 c14
-5 16 -30 16 -170 l0 -163 53 -3 c38 -2 52 -7 52 -18 0 -12 -22 -15 -127 -18
-123 -2 -128 -2 -128 18 0 17 6 20 50 20 l50 0 0 145 0 145 -39 0 c-42 0 -57
11 -47 35 6 15 88 21 120 9z m3435 -19 c24 -23 3 -34 -56 -28 -63 7 -83 -7
-83 -59 0 -27 2 -28 53 -28 58 0 68 -4 60 -26 -3 -10 -22 -14 -59 -14 l-54 0
0 -80 0 -79 58 -3 c43 -2 57 -7 57 -18 0 -12 -19 -15 -115 -15 -96 0 -115 3
-115 15 0 10 12 16 33 18 l32 3 0 79 0 79 -32 3 c-22 2 -34 9 -36 21 -3 13 4
17 31 17 32 0 35 3 42 38 9 52 30 80 68 90 39 11 97 4 116 -13z m-4023 -20
c32 -13 37 -13 51 0 23 23 43 1 43 -47 0 -52 -22 -59 -59 -19 -23 24 -37 31
-67 31 -41 0 -74 -23 -74 -50 0 -25 17 -35 80 -49 80 -17 117 -42 126 -86 8
-46 -7 -79 -48 -106 -38 -23 -101 -20 -142 6 -22 15 -24 14 -29 -6 -10 -39
-32 -15 -35 41 -4 65 12 87 36 50 33 -49 51 -60 96 -60 50 0 76 19 76 55 0 31
-30 50 -102 65 -78 15 -103 37 -103 88 0 47 24 78 69 91 43 13 43 13 82 -4z
m5374 -51 l0 -44 66 0 c57 0 65 -2 62 -17 -3 -15 -16 -19 -66 -21 l-63 -3 3
-77 3 -77 37 -3 c20 -2 50 4 66 12 25 13 32 13 41 2 25 -30 -65 -72 -127 -60
-52 10 -67 36 -71 125 l-3 79 -34 0 c-27 0 -34 4 -34 20 0 16 7 20 35 20 l35
0 0 49 c0 30 5 51 13 54 22 8 37 -15 37 -59z m-5031 -32 c80 -43 95 -157 29
-217 -91 -84 -231 -26 -231 95 0 107 108 172 202 122z m461 -87 c3 -55 9 -106
13 -112 10 -16 51 -17 78 -3 29 16 49 64 49 118 0 47 -2 50 -30 56 -60 11 -21
53 41 44 23 -3 24 -6 27 -115 2 -105 4 -113 22 -113 13 0 20 -7 20 -20 0 -29
-69 -29 -77 0 -5 19 -6 19 -34 -2 -43 -32 -95 -29 -125 6 -21 24 -24 37 -24
112 0 66 -3 84 -14 84 -19 0 -29 17 -22 36 4 10 16 14 38 12 l33 -3 5 -100z
m430 90 c27 -14 30 -14 30 0 0 10 7 15 18 13 25 -5 25 -111 0 -116 -12 -2 -19
5 -24 22 -9 35 -28 48 -74 50 -83 2 -127 -98 -71 -158 29 -31 88 -35 135 -11
33 17 56 13 56 -9 0 -24 -60 -50 -115 -50 -93 0 -145 49 -145 136 0 55 17 87
59 115 39 27 89 30 131 8z m268 -102 l3 -113 54 0 c49 0 55 -2 55 -20 0 -20
-5 -20 -127 -18 -106 3 -128 6 -128 18 0 11 14 16 53 18 l52 3 0 90 0 89 -29
0 c-39 0 -61 9 -61 25 0 19 18 24 75 22 l50 -2 3 -112z m343 102 c93 -48 91
-207 -3 -246 -101 -42 -198 18 -198 122 0 106 108 172 201 124z m167 -13 l4
-24 23 22 c13 12 41 24 62 27 32 4 45 1 69 -20 27 -24 29 -30 32 -115 4 -80 6
-91 24 -95 42 -11 12 -32 -50 -35 -57 -3 -62 -1 -62 18 0 13 7 20 20 20 18 0
20 7 20 79 0 59 -4 84 -16 95 -18 19 -28 20 -57 5 -42 -22 -57 -51 -57 -115 0
-54 3 -62 21 -67 43 -11 14 -32 -49 -35 -57 -3 -62 -1 -62 18 0 13 7 20 20 20
19 0 20 7 20 90 0 70 -3 90 -14 90 -7 0 -18 6 -25 13 -16 20 8 39 44 35 23 -2
31 -9 33 -26z m469 -16 c24 -26 33 -45 33 -71 l0 -35 -110 0 c-60 0 -110 -2
-110 -5 0 -16 31 -63 45 -69 27 -10 86 -7 122 6 28 10 36 10 43 -2 5 -9 5 -19
-1 -26 -15 -19 -105 -37 -144 -30 -108 21 -148 162 -68 238 37 34 49 38 107
34 42 -3 55 -9 83 -40z m246 30 c23 -13 27 -13 27 0 0 8 9 14 20 14 17 0 20
-7 20 -45 0 -50 -15 -58 -44 -26 -28 31 -128 36 -139 7 -10 -25 11 -37 82 -48
85 -13 114 -32 114 -77 0 -68 -88 -110 -165 -78 -31 13 -36 13 -44 -1 -17 -27
-34 -3 -34 49 0 57 11 61 50 19 23 -25 36 -30 73 -30 43 0 77 18 77 40 0 15
-32 28 -93 35 -74 9 -107 34 -107 81 0 28 6 38 33 54 38 23 91 26 130 6z m571
8 c13 -5 16 -25 16 -115 l0 -108 53 -3 c38 -2 52 -7 52 -18 0 -12 -22 -15
-127 -18 -123 -2 -128 -2 -128 18 0 17 6 20 50 20 l50 0 0 90 0 90 -34 0 c-39
0 -62 20 -44 38 13 13 85 16 112 6z m210 0 c9 -3 16 -15 16 -26 0 -18 2 -18
31 6 37 31 87 34 120 7 22 -17 24 -29 27 -115 4 -86 6 -96 23 -96 12 0 19 -7
19 -20 0 -19 -5 -21 -62 -18 -48 2 -63 7 -63 18 0 8 11 16 24 18 22 4 23 6 19
84 -4 87 -21 114 -62 102 -47 -14 -70 -50 -74 -119 -4 -61 -3 -65 17 -65 14 0
21 -6 21 -20 0 -19 -5 -21 -62 -18 -48 2 -63 7 -63 18 0 8 10 16 23 18 21 3
22 8 22 93 0 81 -2 89 -19 89 -23 0 -35 15 -27 35 6 15 42 20 70 9z m745 -12
c80 -43 95 -157 29 -217 -91 -84 -231 -26 -231 95 0 107 108 172 202 122z
m199 6 c7 -7 12 -23 12 -37 l0 -25 16 22 c24 34 66 51 125 50 68 0 89 -6 89
-24 0 -10 5 -9 20 6 26 26 65 26 84 -1 l14 -21 21 21 c25 25 58 27 83 4 15
-13 18 -32 18 -115 0 -59 4 -98 10 -98 6 0 10 15 10 34 0 67 66 104 157 87 43
-8 44 -8 41 18 -4 38 -44 54 -100 41 -67 -17 -73 -17 -73 5 0 25 50 44 118 44
38 1 53 -4 72 -24 22 -21 25 -33 25 -99 0 -87 5 -106 31 -106 12 0 19 -7 19
-20 0 -25 -45 -28 -71 -4 -17 15 -21 15 -42 1 -39 -25 -92 -31 -126 -14 -18 9
-33 11 -37 6 -3 -5 -21 -9 -40 -9 l-34 0 0 104 c0 80 -3 106 -15 116 -32 27
-65 -39 -65 -131 0 -39 3 -48 21 -52 33 -9 17 -32 -24 -35 l-37 -3 0 104 c0
75 -4 108 -13 116 -33 26 -66 -42 -67 -135 0 -34 4 -43 21 -47 41 -11 14 -32
-44 -35 -52 -3 -57 -1 -57 18 0 13 7 20 20 20 19 0 20 7 20 89 l0 89 -56 1
c-49 0 -59 -3 -91 -33 -31 -28 -37 -40 -41 -89 l-4 -57 56 0 c50 0 56 -2 56
-20 0 -20 -5 -21 -107 -18 -88 2 -108 6 -108 18 0 9 11 16 28 18 l27 3 0 89
c0 85 -1 88 -25 94 -26 7 -34 31 -12 39 23 10 63 7 75 -5z m1256 6 c13 -5 16
-25 16 -115 l0 -108 53 -3 c38 -2 52 -7 52 -18 0 -12 -22 -15 -127 -18 -123
-2 -128 -2 -128 18 0 17 6 20 50 20 l50 0 0 90 0 90 -29 0 c-16 0 -36 3 -45 6
-19 7 -21 30 -3 37 18 8 93 8 111 1z m336 -9 c27 -14 30 -14 30 0 0 8 9 15 20
15 18 0 20 -7 20 -60 0 -53 -2 -60 -20 -60 -13 0 -20 7 -20 18 0 30 -35 54
-81 56 -54 1 -89 -36 -89 -95 0 -78 69 -110 157 -74 46 20 53 19 53 -5 0 -47
-131 -72 -196 -37 -38 19 -64 71 -64 124 0 98 104 162 190 118z m331 -14 c27
-28 29 -34 29 -110 0 -78 1 -82 26 -91 14 -6 24 -16 22 -23 -7 -19 -58 -21
-78 -2 -17 15 -20 15 -45 -1 -16 -10 -47 -18 -76 -18 -56 -1 -85 20 -95 70
-12 63 73 114 158 95 44 -10 47 -8 40 25 -7 37 -43 47 -108 31 -40 -10 -57
-11 -63 -3 -22 27 33 54 112 55 41 1 53 -4 78 -28z m262 15 c23 -13 27 -13 27
0 0 8 9 14 20 14 17 0 20 -7 20 -45 0 -50 -15 -58 -44 -26 -28 31 -128 36
-139 7 -10 -25 11 -37 82 -48 85 -13 114 -32 114 -77 0 -68 -88 -110 -165 -78
-31 13 -36 13 -44 -1 -17 -27 -34 -3 -34 49 0 57 11 61 50 19 23 -25 36 -30
73 -30 43 0 77 18 77 40 0 15 -32 28 -93 35 -74 9 -107 34 -107 81 0 28 6 38
33 54 38 23 91 26 130 6z"/>
<path d="M3415 8170 c-220 -46 -249 -54 -299 -83 -52 -29 -80 -77 -80 -139 0
-111 108 -172 263 -148 179 29 279 142 297 334 4 42 5 76 3 75 -2 0 -85 -18
-184 -39z"/>
<path d="M7410 8650 c-103 -18 -184 -73 -238 -163 -45 -74 -62 -144 -62 -254
0 -187 80 -332 219 -397 37 -17 65 -21 141 -21 89 0 99 2 158 34 35 19 79 52
97 74 119 139 140 380 48 549 -70 128 -221 202 -363 178z"/>
<path d="M3308 6670 c-214 -37 -343 -282 -283 -538 30 -128 101 -223 203 -270
77 -36 212 -39 284 -5 155 71 247 268 219 467 -33 238 -211 383 -423 346z"/>
<path d="M5438 6670 c-214 -37 -343 -282 -283 -538 30 -128 101 -223 203 -270
77 -36 212 -39 284 -5 155 71 247 268 219 467 -33 238 -211 383 -423 346z"/>
<path d="M8917 6680 c-114 -29 -210 -119 -243 -226 l-13 -44 343 0 344 0 -8
35 c-20 87 -112 190 -198 220 -58 20 -174 28 -225 15z"/>
<path d="M1542 5085 c-38 -17 -56 -56 -47 -102 8 -46 41 -73 87 -73 55 0 88
35 88 93 0 72 -61 112 -128 82z"/>
<path d="M3055 5091 c-60 -25 -79 -110 -35 -156 32 -34 98 -35 127 -2 46 50
34 129 -23 153 -38 16 -41 16 -69 5z"/>
<path d="M3665 5093 c-26 -6 -55 -32 -55 -50 0 -10 20 -13 80 -13 60 0 80 3
80 13 0 31 -61 60 -105 50z"/>
<path d="M5452 5085 c-38 -17 -56 -56 -47 -102 8 -46 41 -73 87 -73 55 0 88
35 88 93 0 72 -61 112 -128 82z"/>
<path d="M6320 4976 c-6 -8 -10 -25 -8 -38 3 -20 10 -23 49 -26 38 -2 52 2 75
21 43 37 28 57 -44 57 -40 0 -64 -5 -72 -14z"/>
<path d="M7528 4979 c-21 -12 -23 -40 -6 -57 18 -18 79 -14 116 8 35 21 42 44
16 54 -25 10 -107 6 -126 -5z"/>
</g>
</svg>
